<svg width="170" height="97" viewBox="0 0 170 97" fill="none" xmlns="http://www.w3.org/2000/svg"><path fill-rule="evenodd" clip-rule="evenodd" d="M56.4429 94.8306C44.7745 99.7343 31.3698 91.4328 31.3698 78.7758V40.8361L1.63101 -10.6357C-0.53731 -14.3886 1.58171 -19.1445 5.81588 -20.028C19.1644 -22.8134 32.8754 -19.7149 43.7455 -12.029C53.6092 -23.9133 68.4928 -31.4815 85.1441 -31.4815C101.772 -31.4815 116.637 -23.9345 126.501 -12.079C137.36 -19.7283 151.04 -22.8074 164.36 -20.028C168.594 -19.1445 170.713 -14.3886 168.545 -10.6357L138.918 40.6415V78.7758C138.918 91.4327 125.514 99.7343 113.845 94.8306C102.964 90.258 91.3169 86.0714 85.1441 86.0714C78.9712 86.0714 67.3237 90.258 56.4429 94.8306Z" fill="url(#paint0_radial_6414_232750)"/><rect width="30.0135" height="38.4548" rx="15.0068" transform="matrix(1 0 0 -1 43.8789 69.8135)" fill="#C7FFFE"/><rect width="30.0135" height="38.4548" rx="15.0068" transform="matrix(1 0 0 -1 96.0898 69.8135)" fill="#C7FFFE"/><mask id="mask0_6414_232750" style="mask-type:alpha" maskUnits="userSpaceOnUse" x="96" y="31" width="31" height="39"><rect width="30.0135" height="38.4548" rx="15.0068" transform="matrix(1 0 0 -1 96.0898 69.8137)" fill="#C7FFFE"/></mask><g mask="url(#mask0_6414_232750)"><path opacity="0.7" fill-rule="evenodd" clip-rule="evenodd" d="M99.5273 60.3912C102.635 60.3919 105.154 62.9112 105.154 66.0187C105.154 67.0348 104.884 67.988 104.413 68.8108C105.09 69.0278 105.812 69.145 106.562 69.145C110.447 69.145 113.596 65.9956 113.596 62.1106V54.6072C113.596 50.7222 110.447 47.5728 106.562 47.5728C102.677 47.5728 99.5273 50.7222 99.5273 54.6072V60.3912Z" fill="#0000FF"/></g><mask id="mask1_6414_232750" style="mask-type:alpha" maskUnits="userSpaceOnUse" x="43" y="31" width="31" height="39"><rect width="30.0135" height="38.4548" rx="15.0068" transform="matrix(1 0 0 -1 43.8789 69.8137)" fill="#C7FFFE"/></mask><g mask="url(#mask1_6414_232750)"><path opacity="0.7" fill-rule="evenodd" clip-rule="evenodd" d="M56.3814 60.3917C59.4894 60.3917 62.009 62.9112 62.009 66.0192C62.009 67.0569 61.7281 68.0291 61.2382 68.8637C61.865 69.0468 62.5281 69.145 63.2141 69.145C67.0991 69.145 70.2485 65.9956 70.2485 62.1106V54.6072C70.2485 50.7222 67.0991 47.5728 63.2141 47.5728C59.3291 47.5728 56.1797 50.7222 56.1797 54.6072V60.3952C56.2466 60.3928 56.3139 60.3917 56.3814 60.3917Z" fill="#0000FF"/></g><path fill-rule="evenodd" clip-rule="evenodd" d="M88.2312 44.421C84.9625 43.397 81.773 40.6422 78.5586 34.9598L74.9349 35.6013C74.5916 35.6621 74.3627 35.9926 74.4474 36.3308C75.6662 41.1986 80.0701 44.804 85.3161 44.804C86.3244 44.804 87.3017 44.6707 88.2312 44.421Z" fill="#9BFBFA"/><path d="M75.4023 35.4121H84.9877L94.8752 35.4121" stroke="#1C5CFF" stroke-width="2.81724" stroke-linecap="round"/><path d="M80.2578 33.988H89.9724V30.1022C89.9724 27.4196 87.7977 25.2449 85.1151 25.2449C82.4325 25.2449 80.2578 27.4196 80.2578 30.1022V33.988Z" fill="#1C5CFF"/><path d="M78.3164 35.3967H76.9078V33.988V28.1593C76.9078 23.6256 80.583 19.9504 85.1166 19.9504C89.6503 19.9504 93.3255 23.6256 93.3255 28.1593V33.988V35.3967H91.9169H78.3164ZM81.6679 28.1593V30.6365H88.5653V28.1593C88.5653 26.2546 87.0213 24.7106 85.1166 24.7106C83.212 24.7106 81.6679 26.2546 81.6679 28.1593Z" stroke="#1C5CFF" stroke-width="2.81724"/><path d="M109.71 87.3501L96.4224 72.4215C94.8852 70.9104 90.7792 67.8882 86.6523 67.8882" stroke="#9BFBFA" stroke-width="3.12641" stroke-linecap="round"/><path d="M121.002 84.2231C120.455 84.3013 119.415 84.0043 118.853 83.1289C118.29 82.2535 116.899 80.6277 116.273 79.9243" stroke="#9BFBFA" stroke-width="3.12641" stroke-linecap="round"/><path d="M56.7005 87.7021C55.5672 86.5037 53.8672 83.9114 53.8672 81.0976" stroke="#9BFBFA" stroke-width="3.12641" stroke-linecap="round"/><path d="M47.7545 83.7139C46.4737 82.4011 44.066 78.7382 44.6807 74.5887" stroke="#9BFBFA" stroke-width="3.12641" stroke-linecap="round"/><path d="M44.6835 74.3757C41.557 71.4578 35.3824 64.0586 35.695 57.8058" stroke="#9BFBFA" stroke-width="3.12641" stroke-linecap="round"/><path opacity="0.4" d="M125.969 72.7332C133.16 65.7925 133.863 63.1194 133.863 51.5517C133.863 51.5517 133.863 48.0814 133.863 41.3909C133.863 33.0278 122.843 22.6325 112.76 22.6325C107.219 22.6325 102.443 24.4521 99.3281 26.2164" stroke="#0818FF" stroke-width="2.81377" stroke-linecap="round"/><path opacity="0.81" d="M35.5352 44.1267C35.5352 31.1521 47.9626 22.5545 57.9671 22.5545C63.4611 22.5545 68.2873 24.6415 71.5153 26.6666" stroke="#2A59FF" stroke-width="2.81377" stroke-linecap="round"/><g style="mix-blend-mode:overlay"><path d="M66.5184 7.82544L80.0526 7.83032C80.7781 7.83058 81.2922 7.15898 81.0679 6.50396C79.9905 3.35686 76.8586 1.18276 73.2829 1.18147C69.7071 1.18018 66.577 3.35203 65.5021 6.49835C65.2783 7.15321 65.793 7.82518 66.5184 7.82544Z" fill="#204AFF"/></g><g style="mix-blend-mode:overlay"><path d="M90.1395 7.82495L103.674 7.82983C104.399 7.8301 104.913 7.15849 104.689 6.50348C103.612 3.35638 100.48 1.18227 96.904 1.18098C93.3282 1.17969 90.1981 3.35154 89.1232 6.49787C88.8994 7.15272 89.4141 7.82469 90.1395 7.82495Z" fill="#204AFF"/></g><defs><radialGradient id="paint0_radial_6414_232750" cx="0" cy="0" r="1" gradientUnits="userSpaceOnUse" gradientTransform="translate(56.2657 72.9885) rotate(-61.3124) scale(125.974 177.899)"><stop stop-color="#00FF38"/><stop offset="0.523569" stop-color="#268AFF"/><stop offset="1" stop-color="#FC55FF"/></radialGradient></defs></svg>