<svg xmlns="http://www.w3.org/2000/svg" xmlns:xlink="http://www.w3.org/1999/xlink" width="64" zoomAndPan="magnify" viewBox="0 0 48 48" height="64" preserveAspectRatio="xMidYMid meet" version="1.0"><defs><clipPath id="1599fbc95c"><path d="M 12.460938 9.109375 L 37.441406 9.109375 L 37.441406 40.703125 L 12.460938 40.703125 Z M 12.460938 9.109375 " clip-rule="nonzero"/></clipPath><clipPath id="1ff41fbb39"><path d="M 35 25 L 37.441406 25 L 37.441406 33 L 35 33 Z M 35 25 " clip-rule="nonzero"/></clipPath><clipPath id="d68368f1db"><path d="M 18 38 L 32 38 L 32 40.703125 L 18 40.703125 Z M 18 38 " clip-rule="nonzero"/></clipPath><clipPath id="41de6d0c21"><path d="M 22 9.109375 L 28 9.109375 L 28 16 L 22 16 Z M 22 9.109375 " clip-rule="nonzero"/></clipPath><clipPath id="53189b7436"><path d="M 12.460938 23 L 15 23 L 15 35 L 12.460938 35 Z M 12.460938 23 " clip-rule="nonzero"/></clipPath></defs><g clip-path="url(#1599fbc95c)"><path fill="#3b2714" d="M 35.359375 25.960938 L 35.359375 21.746094 L 33.277344 21.746094 L 33.277344 19.644531 L 31.195312 19.644531 L 31.195312 21.746094 L 27.035156 21.746094 L 27.035156 17.539062 L 29.117188 17.539062 L 29.117188 13.324219 L 27.035156 13.324219 L 27.035156 11.222656 L 24.953125 11.222656 L 24.953125 9.113281 L 22.871094 9.113281 L 22.871094 15.429688 L 20.789062 15.429688 L 20.789062 17.539062 L 18.710938 17.539062 L 18.710938 19.644531 L 16.625 19.644531 L 16.625 21.746094 L 14.542969 21.746094 L 14.542969 23.855469 L 12.460938 23.855469 L 12.460938 34.382812 L 14.542969 34.382812 L 14.542969 36.484375 L 16.625 36.484375 L 16.625 38.59375 L 18.710938 38.59375 L 18.710938 40.699219 L 31.195312 40.699219 L 31.195312 38.59375 L 33.277344 38.59375 L 33.277344 36.484375 L 35.359375 36.484375 L 35.359375 32.277344 L 37.441406 32.277344 L 37.441406 25.960938 Z M 35.359375 25.960938 " fill-opacity="1" fill-rule="nonzero"/></g><path fill="#ed2b3b" d="M 33.277344 25.960938 L 33.277344 21.746094 L 31.195312 21.746094 L 31.195312 23.855469 L 27.035156 23.855469 L 27.035156 21.746094 L 24.953125 21.746094 L 24.953125 17.539062 L 27.035156 17.539062 L 27.035156 13.324219 L 24.953125 13.324219 L 24.953125 15.429688 L 22.871094 15.429688 L 22.871094 17.539062 L 20.789062 17.539062 L 20.789062 19.644531 L 18.710938 19.644531 L 18.710938 21.746094 L 16.625 21.746094 L 16.625 23.855469 L 14.542969 23.855469 L 14.542969 34.382812 L 16.625 34.382812 L 17.371094 32.589844 L 17.75 30.246094 L 18.097656 28.855469 L 17.734375 27.402344 L 19.523438 26.75 L 19.75 25.460938 L 21.460938 25.046875 L 21.460938 22.957031 L 22.945312 23.402344 L 23.6875 23.757812 L 24.398438 24.703125 L 25.792969 25.308594 L 26.871094 26.941406 L 29.117188 26.914062 L 30.089844 27.136719 L 30.15625 29.410156 L 31.632812 29.964844 L 32.140625 30.660156 L 33.277344 32.277344 L 35.359375 32.277344 L 35.359375 25.960938 Z M 33.277344 25.960938 " fill-opacity="1" fill-rule="nonzero"/><path fill="#fb932b" d="M 31.191406 28.066406 L 31.191406 25.960938 L 27.03125 25.960938 L 27.03125 23.859375 L 24.949219 23.859375 L 24.949219 21.75 L 20.785156 21.75 L 20.785156 23.859375 L 18.707031 23.859375 L 18.707031 25.960938 L 16.625 25.960938 L 16.625 36.488281 L 18.707031 36.488281 L 18.707031 38.597656 L 20.789062 38.59375 L 22.867188 37.433594 L 27.199219 37.539062 L 29.117188 38.59375 L 31.191406 38.597656 L 31.191406 36.488281 L 33.273438 36.488281 L 33.273438 28.066406 Z M 31.191406 28.066406 " fill-opacity="1" fill-rule="nonzero"/><path fill="#f6fb5d" d="M 29.117188 32.277344 L 29.117188 28.066406 L 24.953125 28.066406 L 24.953125 25.960938 L 22.871094 25.960938 L 22.871094 28.066406 L 20.789062 28.066406 L 20.789062 30.167969 L 18.710938 30.167969 L 18.710938 36.484375 L 20.789062 36.484375 L 20.789062 38.59375 L 22.871094 38.59375 L 23.773438 37.019531 L 23.875 36.039062 L 24.675781 35.921875 L 25.882812 36.085938 L 25.503906 37.597656 L 27.035156 38.59375 L 29.117188 38.59375 L 29.117188 36.484375 L 31.195312 36.484375 L 31.195312 32.277344 Z M 29.117188 32.277344 " fill-opacity="1" fill-rule="nonzero"/><g clip-path="url(#1ff41fbb39)"><path fill="#3b2714" d="M 35.359375 25.960938 L 35.359375 32.277344 L 37.441406 32.277344 L 37.441406 25.960938 Z M 35.359375 25.960938 " fill-opacity="1" fill-rule="nonzero"/></g><path fill="#3b2714" d="M 33.277344 34.382812 L 33.277344 36.484375 L 35.359375 36.484375 L 35.359375 32.277344 L 33.277344 32.277344 Z M 33.277344 34.382812 " fill-opacity="1" fill-rule="nonzero"/><path fill="#3b2714" d="M 33.277344 25.960938 L 35.359375 25.960938 L 35.359375 21.746094 L 33.277344 21.746094 Z M 33.277344 25.960938 " fill-opacity="1" fill-rule="nonzero"/><path fill="#3b2714" d="M 31.195312 36.484375 L 33.277344 36.484375 L 33.277344 38.59375 L 31.195312 38.59375 Z M 31.195312 36.484375 " fill-opacity="1" fill-rule="nonzero"/><path fill="#3b2714" d="M 31.195312 19.644531 L 33.277344 19.644531 L 33.277344 21.746094 L 31.195312 21.746094 Z M 31.195312 19.644531 " fill-opacity="1" fill-rule="nonzero"/><g clip-path="url(#d68368f1db)"><path fill="#3b2714" d="M 27.035156 38.59375 L 18.710938 38.59375 L 18.710938 40.699219 L 31.195312 40.699219 L 31.195312 38.59375 Z M 27.035156 38.59375 " fill-opacity="1" fill-rule="nonzero"/></g><path fill="#3b2714" d="M 29.117188 23.855469 L 31.195312 23.855469 L 31.195312 21.746094 L 27.035156 21.746094 L 27.035156 23.855469 Z M 29.117188 23.855469 " fill-opacity="1" fill-rule="nonzero"/><path fill="#3b2714" d="M 27.035156 17.539062 L 29.117188 17.539062 L 29.117188 13.324219 L 27.035156 13.324219 Z M 27.035156 17.539062 " fill-opacity="1" fill-rule="nonzero"/><path fill="#3b2714" d="M 24.953125 19.644531 L 24.953125 21.746094 L 27.035156 21.746094 L 27.035156 17.539062 L 24.953125 17.539062 Z M 24.953125 19.644531 " fill-opacity="1" fill-rule="nonzero"/><g clip-path="url(#41de6d0c21)"><path fill="#3b2714" d="M 24.953125 13.324219 L 27.035156 13.324219 L 27.035156 11.222656 L 24.953125 11.222656 L 24.953125 9.113281 L 22.871094 9.113281 L 22.871094 15.429688 L 24.953125 15.429688 Z M 24.953125 13.324219 " fill-opacity="1" fill-rule="nonzero"/></g><path fill="#3b2714" d="M 20.789062 15.429688 L 22.871094 15.429688 L 22.871094 17.539062 L 20.789062 17.539062 Z M 20.789062 15.429688 " fill-opacity="1" fill-rule="nonzero"/><path fill="#3b2714" d="M 18.710938 17.539062 L 20.789062 17.539062 L 20.789062 19.644531 L 18.710938 19.644531 Z M 18.710938 17.539062 " fill-opacity="1" fill-rule="nonzero"/><path fill="#3b2714" d="M 16.625 36.484375 L 18.710938 36.484375 L 18.710938 38.59375 L 16.625 38.59375 Z M 16.625 36.484375 " fill-opacity="1" fill-rule="nonzero"/><path fill="#3b2714" d="M 16.625 19.644531 L 18.710938 19.644531 L 18.710938 21.746094 L 16.625 21.746094 Z M 16.625 19.644531 " fill-opacity="1" fill-rule="nonzero"/><path fill="#3b2714" d="M 14.542969 34.382812 L 16.625 34.382812 L 16.625 36.484375 L 14.542969 36.484375 Z M 14.542969 34.382812 " fill-opacity="1" fill-rule="nonzero"/><path fill="#3b2714" d="M 14.542969 21.746094 L 16.625 21.746094 L 16.625 23.855469 L 14.542969 23.855469 Z M 14.542969 21.746094 " fill-opacity="1" fill-rule="nonzero"/><g clip-path="url(#53189b7436)"><path fill="#3b2714" d="M 14.542969 30.167969 L 14.542969 23.855469 L 12.460938 23.855469 L 12.460938 34.382812 L 14.542969 34.382812 Z M 14.542969 30.167969 " fill-opacity="1" fill-rule="nonzero"/></g><path fill="#fbfbfb" d="M 27.035156 34.382812 L 22.871094 34.382812 L 22.871094 38.59375 L 27.035156 38.59375 L 27.035156 36.488281 L 27.03125 36.488281 L 27.035156 36.484375 Z M 27.035156 34.382812 " fill-opacity="1" fill-rule="nonzero"/></svg>