<svg width="336" height="160" viewBox="0 0 336 160" fill="none" xmlns="http://www.w3.org/2000/svg"><path d="M336 83.3707C336 107.716 316.264 127.452 291.919 127.452C267.573 127.452 247.837 107.716 247.837 83.3707C247.837 59.0251 267.573 39.2891 291.919 39.2891C316.264 39.2891 336 59.0251 336 83.3707Z" fill="#FFECA7"/><path fill-rule="evenodd" clip-rule="evenodd" d="M327.4 109.537C319.372 120.407 306.469 127.456 291.919 127.456C277.423 127.456 264.561 120.459 256.526 109.658C259.092 107.296 262.518 105.854 266.281 105.854C266.521 105.854 266.759 105.86 266.997 105.871V105.854H270.71V98.6055H313.029V105.854H317.883C321.54 105.88 324.873 107.268 327.4 109.537Z" fill="#78B13B"/><path d="M277.291 52.6016L282.883 80.5434C283.182 82.041 285.549 82.678 287.556 81.8013C293.494 79.2081 297.927 75.2407 300.112 70.8514C302.818 68.5909 304.441 65.1306 304.314 61.384C304.139 56.2329 300.699 51.822 295.887 50.4159C294.885 50.1232 293.894 50.895 293.93 51.94L293.963 52.9209C290.491 50.9464 286.057 49.7735 281.126 49.6652C278.933 49.6171 276.992 51.1039 277.291 52.6016Z" fill="#553629"/><path d="M270.71 71.2734C270.71 66.4042 274.657 62.457 279.526 62.457H304.212C309.081 62.457 313.028 66.4042 313.028 71.2734V99.9264H270.71V71.2734Z" fill="#E18E70"/><path d="M270.71 71.2734C270.71 66.4042 274.657 62.457 279.526 62.457H304.212C309.081 62.457 313.028 66.4042 313.028 71.2734V99.9264H270.71V71.2734Z" fill="#E18E70"/><path d="M279.526 62.3594C274.657 62.3594 270.71 66.3066 270.71 71.1757V74.2614H272.473C276.369 74.2614 279.526 71.1037 279.526 67.2084V62.3594Z" fill="#B07661"/><path d="M304.212 62.3594C309.081 62.3594 313.028 66.3066 313.028 71.1757V74.2614H311.265C307.37 74.2614 304.212 71.1037 304.212 67.2084V62.3594Z" fill="#B07661"/><path d="M309.501 78.6699C309.501 76.2353 311.475 74.2617 313.909 74.2617C316.344 74.2617 318.317 76.2353 318.317 78.6699C318.317 81.1044 316.344 83.078 313.909 83.078C311.475 83.078 309.501 81.1044 309.501 78.6699Z" fill="#E18E70"/><rect x="265.42" y="74.2617" width="8.81632" height="8.81633" rx="4.40816" fill="#E18E70"/><path fill-rule="evenodd" clip-rule="evenodd" d="M297.15 88.934C296.196 88.8485 294.792 89.256 293.743 89.7124C293.363 89.8772 292.922 89.7035 292.758 89.3244C292.593 88.9452 292.766 88.5043 293.146 88.3394C294.248 87.8601 295.941 87.3225 297.284 87.4429C297.968 87.5042 298.717 87.7533 299.16 88.4416C299.596 89.1179 299.597 90.005 299.31 91.0093C299.197 91.4068 298.782 91.637 298.385 91.5234C297.987 91.4099 297.757 90.9956 297.871 90.5981C298.108 89.7685 297.996 89.3994 297.902 89.2523C297.815 89.1172 297.614 88.9756 297.15 88.934Z" fill="#A55437"/><path d="M293.853 76.4572C293.853 73.6574 296.122 71.3878 298.922 71.3878H303.771C306.571 71.3878 308.84 73.6574 308.84 76.4572V78.8817C308.84 83.0205 305.485 86.3756 301.347 86.3756C297.208 86.3756 293.853 83.0205 293.853 78.8817V76.4572Z" fill="#E18E70" stroke="#1453A3" stroke-width="1.32245"/><path d="M289.886 76.4572C289.886 73.6574 287.616 71.3878 284.816 71.3878H279.967C277.168 71.3878 274.898 73.6574 274.898 76.4572V78.8817C274.898 83.0205 278.253 86.3756 282.392 86.3756C286.531 86.3756 289.886 83.0205 289.886 78.8817V76.4572Z" fill="#E18E70" stroke="#1453A3" stroke-width="1.32245"/><path d="M293.853 76.4572C293.853 73.6574 296.122 71.3878 298.922 71.3878H303.771C306.571 71.3878 308.84 73.6574 308.84 76.4572V78.8817C308.84 83.0205 305.485 86.3756 301.347 86.3756C297.208 86.3756 293.853 83.0205 293.853 78.8817V76.4572Z" stroke="#1453A3" stroke-width="1.32245"/><path d="M289.886 76.4572C289.886 73.6574 287.616 71.3878 284.816 71.3878H279.967C277.168 71.3878 274.898 73.6574 274.898 76.4572V78.8817C274.898 83.0205 278.253 86.3756 282.392 86.3756C286.531 86.3756 289.886 83.0205 289.886 78.8817V76.4572Z" stroke="#1453A3" stroke-width="1.32245"/><path fill-rule="evenodd" clip-rule="evenodd" d="M293.201 80.0463C292.476 79.3208 291.3 79.3208 290.574 80.0463C290.316 80.3045 289.897 80.3045 289.639 80.0463C289.381 79.788 289.381 79.3694 289.639 79.1112C290.881 77.8692 292.895 77.8692 294.137 79.1112C294.395 79.3694 294.395 79.788 294.137 80.0463C293.878 80.3045 293.46 80.3045 293.201 80.0463Z" fill="#1453A3"/><path fill-rule="evenodd" clip-rule="evenodd" d="M294.393 77.7979C294.393 78.1631 294.097 78.4592 293.731 78.4592H291.02C290.968 78.4592 291.058 78.4592 291.005 78.4592L290.169 78.4592C289.804 78.4592 289.508 78.1631 289.508 77.7979C289.508 77.4328 289.804 77.1367 290.169 77.1367H293.731C294.097 77.1367 294.393 77.4328 294.393 77.7979Z" fill="#1453A3"/><path d="M308.85 74.8363C308.369 73.3935 307.391 72.172 306.094 71.3878H309.722C310.696 71.3878 311.485 72.1772 311.485 73.1511C311.485 74.1249 310.696 74.9143 309.722 74.9143H308.876L308.85 74.8363Z" fill="#1453A3" stroke="#1453A3" stroke-width="1.32245"/><path d="M309.722 72.2695C309.236 72.2695 308.841 72.6643 308.841 73.1512C308.841 73.6381 309.236 74.0328 309.722 74.0328C310.209 74.0328 310.604 73.6381 310.604 73.1512C310.604 72.6643 310.209 72.2695 309.722 72.2695Z" fill="#89A9D1"/><path d="M274.016 71.3878H277.645C276.348 72.172 275.369 73.3935 274.888 74.8363L274.862 74.9143H274.016C273.042 74.9143 272.253 74.1249 272.253 73.1511C272.253 72.1772 273.042 71.3878 274.016 71.3878Z" fill="#1453A3" stroke="#1453A3" stroke-width="1.32245"/><path d="M274.016 72.2695C274.503 72.2695 274.898 72.6643 274.898 73.1512C274.898 73.6381 274.503 74.0328 274.016 74.0328C273.529 74.0328 273.135 73.6381 273.135 73.1512C273.135 72.6643 273.529 72.2695 274.016 72.2695Z" fill="#89A9D1"/><path fill-rule="evenodd" clip-rule="evenodd" d="M308.416 77.3882C308.503 78.1203 307.98 78.7844 307.248 78.8716C302.676 79.4158 298.88 80.3938 295.859 81.4731C295.164 81.721 294.4 81.3592 294.152 80.6649C293.904 79.9706 294.266 79.2067 294.961 78.9587C298.168 77.8131 302.16 76.7886 306.932 76.2204C307.665 76.1333 308.329 76.6561 308.416 77.3882Z" fill="white"/><path fill-rule="evenodd" clip-rule="evenodd" d="M275.225 76.7515C275.138 77.4836 275.661 78.1477 276.393 78.2349C280.965 78.7791 284.761 79.7571 287.783 80.8364C288.477 81.0843 289.241 80.7225 289.489 80.0282C289.737 79.3339 289.375 78.57 288.681 78.322C285.473 77.1764 281.482 76.1519 276.709 75.5837C275.977 75.4966 275.312 76.0194 275.225 76.7515Z" fill="white"/><path fill-rule="evenodd" clip-rule="evenodd" d="M284.803 77.1172C284.51 77.5696 284.34 78.1091 284.34 78.6884C284.34 79.0902 284.422 79.4727 284.57 79.8204C285.724 80.1402 286.795 80.4824 287.784 80.8354C288.478 81.0834 289.242 80.7216 289.49 80.0272C289.738 79.3329 289.376 78.569 288.682 78.3211C287.496 77.8976 286.203 77.4906 284.803 77.1172Z" fill="#3D3D3D"/><path fill-rule="evenodd" clip-rule="evenodd" d="M304.705 79.23C304.453 78.8011 304.309 78.3016 304.309 77.7684C304.309 77.3315 304.405 76.9173 304.579 76.546C305.341 76.4255 306.125 76.3165 306.932 76.2204C307.664 76.1333 308.328 76.6561 308.415 77.3882C308.502 78.1203 307.98 78.7844 307.248 78.8716C306.371 78.9759 305.524 79.0961 304.705 79.23Z" fill="#3D3D3D"/><path fill-rule="evenodd" clip-rule="evenodd" d="M303.771 72.049H298.922C296.487 72.049 294.514 74.0226 294.514 76.4572V78.8817C294.514 82.6553 297.573 85.7144 301.347 85.7144C305.12 85.7144 308.179 82.6553 308.179 78.8817V76.4572C308.179 74.0226 306.206 72.049 303.771 72.049ZM298.922 70.7266C295.757 70.7266 293.191 73.2923 293.191 76.4572V78.8817C293.191 83.3856 296.843 87.0368 301.347 87.0368C305.85 87.0368 309.502 83.3856 309.502 78.8817V76.4572C309.502 73.2922 306.936 70.7266 303.771 70.7266H298.922Z" fill="#1453A3"/><path fill-rule="evenodd" clip-rule="evenodd" d="M279.967 72.049H284.816C287.25 72.049 289.224 74.0226 289.224 76.4572V78.8817C289.224 82.6553 286.165 85.7144 282.391 85.7144C278.618 85.7144 275.559 82.6553 275.559 78.8817V76.4572C275.559 74.0226 277.532 72.049 279.967 72.049ZM284.816 70.7266C287.981 70.7266 290.547 73.2923 290.547 76.4572V78.8817C290.547 83.3856 286.895 87.0368 282.391 87.0368C277.887 87.0368 274.236 83.3856 274.236 78.8817V76.4572C274.236 73.2922 276.802 70.7266 279.967 70.7266H284.816Z" fill="#1453A3"/><path d="M294.072 85.4008C294.072 86.5344 293.085 87.6386 291.868 87.6386C290.651 87.6386 289.664 86.5344 289.664 85.4008C289.664 84.2672 291.776 81.3398 291.868 81.3398C291.96 81.3398 294.072 84.2672 294.072 85.4008Z" fill="#A55437"/><circle cx="168" cy="81.9016" r="64.1633" fill="#84D8FF"/><path fill-rule="evenodd" clip-rule="evenodd" d="M106.992 61.9767H111.179V52.074C111.69 51.1031 112.225 50.1468 112.783 49.2061V61.9767H127.22V47.5399L113.806 47.5399C114.15 46.9997 114.501 46.4649 114.86 45.9358L127.22 45.9358V32.3666C128.259 31.5102 129.325 30.6858 130.418 29.895H143.26V22.6854C143.792 22.4633 144.326 22.2481 144.865 22.04V29.895L159.301 29.895V18.3269C159.834 18.2547 160.369 18.189 160.905 18.13V29.895L175.342 29.895V18.1576C175.879 18.2188 176.414 18.2865 176.946 18.3608V29.895L191.383 29.895V22.136C191.921 22.3467 192.456 22.5646 192.987 22.7893V29.895H205.583C206.762 30.7486 207.911 31.6412 209.028 32.5711V45.9358L221.141 45.9358C221.5 46.4649 221.851 46.9997 222.194 47.5399L209.028 47.5399V61.9767H223.465V49.6256C224.024 50.5842 224.559 51.5587 225.069 52.548V61.9767H229.008C229.182 62.5083 229.349 63.043 229.509 63.5807H225.069V78.0175H232.048C232.08 78.5504 232.105 79.0852 232.124 79.6215H225.069V94.0583H231.014C230.911 94.5954 230.802 95.1301 230.685 95.6624H225.069V110.099H225.654C224.972 111.49 224.242 112.853 223.465 114.185V111.703H209.028V126.14H214.479C213.961 126.684 213.434 127.219 212.898 127.744H209.028V131.24C208.5 131.679 207.965 132.11 207.424 132.532V127.744H192.987V141.022C192.456 141.246 191.921 141.464 191.383 141.675V127.744H176.946V142.181H190.047C188.404 142.782 186.73 143.317 185.028 143.785H176.946V145.45C176.414 145.524 175.879 145.592 175.342 145.653V143.785H160.905V145.681C160.369 145.622 159.834 145.556 159.301 145.484V143.785H150.973C149.27 143.317 147.596 142.782 145.954 142.181H159.301V127.744H144.865V141.771C144.326 141.563 143.792 141.348 143.26 141.125V127.744H128.824V132.724C128.282 132.306 127.747 131.879 127.22 131.444V127.744H123.103C122.567 127.219 122.04 126.684 121.522 126.14H127.22V111.703H112.783V114.605C112.225 113.664 111.69 112.708 111.179 111.737V111.703H111.161C110.883 111.173 110.611 110.638 110.347 110.099H111.179V95.6624H105.315C105.199 95.1301 105.089 94.5954 104.986 94.0583H111.179V79.6216H103.877C103.896 79.0852 103.921 78.5504 103.953 78.0175H111.179V63.5807H106.492C106.652 63.0431 106.819 62.5083 106.992 61.9767ZM128.824 31.4991V45.9358H143.26V31.4991L128.824 31.4991ZM144.865 31.4991V45.9358H159.301V31.4991L144.865 31.4991ZM160.905 31.4991V45.9358L175.342 45.9358V31.4991H160.905ZM176.946 31.4991V45.9358H191.383V31.4991L176.946 31.4991ZM192.987 31.4991V45.9358H207.424V31.4991L192.987 31.4991ZM128.824 61.9767V47.5399H143.26V61.9767L128.824 61.9767ZM144.865 61.9767V47.5399L159.301 47.5399V61.9767H144.865ZM160.905 61.9767V47.5399H175.342V61.9767H160.905ZM176.946 61.9767V47.5399L191.383 47.5399V61.9767H176.946ZM192.987 61.9767V47.5399H207.424V61.9767L192.987 61.9767ZM112.783 63.5807V78.0175H127.22V63.5807H112.783ZM128.824 63.5807V78.0175L143.26 78.0175V63.5807L128.824 63.5807ZM144.865 63.5807V78.0175H159.301V63.5807H144.865ZM160.905 63.5807V78.0175H175.342V63.5807H160.905ZM176.946 63.5807V78.0175H191.383V63.5807H176.946ZM192.987 63.5807V78.0175L207.424 78.0175V63.5807L192.987 63.5807ZM209.028 63.5807V78.0175H223.465V63.5807H209.028ZM112.783 94.0583V79.6216H127.22V94.0583H112.783ZM128.824 94.0583V79.6216L143.26 79.6216V94.0583H128.824ZM144.865 94.0583V79.6216H159.301V94.0583H144.865ZM160.905 94.0583V79.6216H175.342V94.0583L160.905 94.0583ZM176.946 94.0583V79.6216H191.383V94.0583H176.946ZM192.987 94.0583V79.6216L207.424 79.6215V94.0583H192.987ZM209.028 94.0583V79.6215H223.465V94.0583H209.028ZM112.783 95.6624V110.099H127.22V95.6624H112.783ZM128.824 95.6624V110.099H143.26V95.6624H128.824ZM144.865 95.6624V110.099H159.301V95.6624H144.865ZM160.905 95.6624V110.099L175.342 110.099V95.6624L160.905 95.6624ZM176.946 95.6624V110.099H191.383V95.6624H176.946ZM192.987 95.6624V110.099H207.424V95.6624H192.987ZM209.028 95.6624V110.099H223.465V95.6624H209.028ZM128.824 126.14V111.703H143.26V126.14H128.824ZM144.865 126.14V111.703H159.301V126.14H144.865ZM160.905 126.14V111.703L175.342 111.703V126.14L160.905 126.14ZM176.946 126.14V111.703H191.383V126.14H176.946ZM192.987 126.14V111.703H207.424V126.14H192.987ZM160.905 127.744V142.181H175.342V127.744L160.905 127.744Z" fill="#9DE0FF"/><path opacity="0.25" d="M222.398 4.88411C221.501 3.32894 219.512 2.7961 217.957 3.69397L209.509 8.57123C207.954 9.46911 207.421 11.4577 208.319 13.0129L213.196 21.4605C214.094 23.0157 216.083 23.5485 217.638 22.6506L226.086 17.7734C227.641 16.8755 228.174 14.8869 227.276 13.3318L222.398 4.88411Z" fill="#1CB0F6"/><path opacity="0.5" d="M236.319 28.3919C235.421 26.8367 233.432 26.3039 231.877 27.2018L228.122 29.3695C226.567 30.2673 226.034 32.2559 226.932 33.8111L229.1 37.5656C229.998 39.1208 231.986 39.6536 233.542 38.7557L237.296 36.5881C238.851 35.6902 239.384 33.7016 238.486 32.1464L236.319 28.3919Z" fill="#1CB0F6"/><path opacity="0.5" d="M114.488 145.943C115.385 144.388 117.374 143.855 118.929 144.753L122.684 146.92C124.239 147.818 124.772 149.807 123.874 151.362L121.706 155.116C120.808 156.672 118.82 157.204 117.265 156.307L113.51 154.139C111.955 153.241 111.422 151.252 112.32 149.697L114.488 145.943Z" fill="#1CB0F6"/><path d="M88.1633 83.3707C88.1633 107.716 68.4273 127.452 44.0816 127.452C19.736 127.452 0 107.716 0 83.3707C0 59.0251 19.736 39.2891 44.0816 39.2891C68.4273 39.2891 88.1633 59.0251 88.1633 83.3707Z" fill="#F3E0FF"/><path fill-rule="evenodd" clip-rule="evenodd" d="M24.4729 122.866C21.6186 120.339 19.6994 116.699 19.5055 112.436C19.4859 112.006 19.236 111.621 18.8518 111.428L15.0043 109.494C6.58426 105.263 3.89126 94.5379 9.31356 86.8308L10.4194 85.259C10.7988 84.7197 10.805 84.0019 10.435 83.4561C4.89064 75.2778 9.42495 64.0894 19.0987 62.0784L20.8129 61.7221C21.3438 61.6117 21.7763 61.2281 21.9491 60.7141C26.4699 47.2707 43.557 43.2836 53.5608 53.3379L57.5217 57.3188C57.9452 57.7444 58.578 57.8836 59.141 57.6751C68.8587 54.0753 78.8142 62.3848 77.0098 72.5895L76.4452 75.7827C76.3716 76.1989 76.4515 76.6277 76.6702 76.9894L80.0016 82.5015C84.5226 89.9818 82.2836 99.7007 74.9454 104.449C74.5341 104.715 74.3084 105.191 74.3623 105.678C74.9626 111.105 72.9453 116.003 69.4904 119.401C67.1268 121.071 64.5917 122.514 61.9166 123.699C59.05 124.439 55.9205 124.421 52.7857 123.432L48.6571 122.131C48.297 122.018 47.908 122.039 47.5622 122.19L40.3144 125.368C38.6844 126.083 37.0186 126.48 35.3744 126.596C31.5371 125.828 27.8798 124.561 24.4729 122.866Z" fill="#FF97CF"/><path fill-rule="evenodd" clip-rule="evenodd" d="M25.7432 123.472L32.9315 108.863L32.9539 108.874L39.7079 95.4846C41.4816 91.9687 46.502 91.9687 48.2757 95.4846L55.8118 110.424C55.9331 110.665 56.0339 110.908 56.1152 111.153L62.2218 123.563C56.6894 126.064 50.5485 127.456 44.0824 127.456C37.5383 127.456 31.3273 126.03 25.7432 123.472Z" fill="#C03C64"/><path d="M15.334 87.3633C14.6569 88.4462 14.2656 89.726 14.2656 91.0972C14.2656 94.9925 17.4234 98.1503 21.3187 98.1503C24.8628 98.1503 27.7964 95.5363 28.2965 92.1311C28.3798 91.5643 27.9074 91.0972 27.3345 91.0972C26.7617 91.0972 26.3086 91.5667 26.1906 92.1273C25.7162 94.3826 23.7152 96.0759 21.3187 96.0759C18.5691 96.0759 16.3401 93.8469 16.3401 91.0972C16.3401 90.2221 16.5659 89.3997 16.9624 88.6851L15.334 87.3633Z" fill="#F9DCC7"/><path d="M72.267 87.3633C72.9441 88.4462 73.3354 89.726 73.3354 91.0972C73.3354 94.9925 70.1776 98.1503 66.2823 98.1503C62.7382 98.1503 59.8046 95.5363 59.3045 92.1311C59.2212 91.5643 59.6936 91.0972 60.2665 91.0972C60.8393 91.0972 61.2924 91.5667 61.4104 92.1273C61.8848 94.3826 63.8858 96.0759 66.2823 96.0759C69.0319 96.0759 71.2609 93.8469 71.2609 91.0972C71.2609 90.2221 71.0351 89.3997 70.6386 88.6851L72.267 87.3633Z" fill="#F9DCC7"/><path d="M22.6279 74.2148C22.6279 69.3456 26.5751 65.3984 31.4442 65.3984H56.13C60.9991 65.3984 64.9463 69.3456 64.9463 74.2148V94.0514C64.9463 98.9205 60.9991 102.868 56.13 102.868H31.4442C26.5751 102.868 22.6279 98.9205 22.6279 94.0514V74.2148Z" fill="#7D4A3F"/><path fill-rule="evenodd" clip-rule="evenodd" d="M38.1459 89.9425C38.5892 89.741 39.1119 89.937 39.3134 90.3803C39.6124 91.0382 40.3104 91.9621 41.3864 92.5032C42.421 93.0234 43.8896 93.234 45.87 92.3626C46.3157 92.1665 46.8359 92.3689 47.032 92.8145C47.2281 93.2602 47.0258 93.7805 46.5801 93.9766C44.1524 95.0448 42.1311 94.8513 40.5943 94.0785C39.0989 93.3265 38.1438 92.0684 37.7081 91.11C37.5067 90.6667 37.7027 90.144 38.1459 89.9425Z" fill="#552B22"/><path d="M44.8691 80.049C44.8691 76.8291 47.4795 74.2188 50.6994 74.2188H55.558C55.88 74.2188 56.141 74.4798 56.141 74.8018V80.8264C56.141 84.0464 53.5307 86.6567 50.3107 86.6567H47.7843C46.1743 86.6567 44.8691 85.3515 44.8691 83.7415V80.049Z" fill="white"/><path d="M42.7319 80.049C42.7319 76.8291 40.1215 74.2188 36.9016 74.2188H32.043C31.721 74.2188 31.46 74.4798 31.46 74.8018V80.8264C31.46 84.0464 34.0703 86.6567 37.2902 86.6567H39.8167C41.4267 86.6567 42.7319 85.3515 42.7319 83.7415V80.049Z" fill="white"/><path d="M46.2285 79.9517C46.2285 78.5028 47.4032 77.3281 48.8521 77.3281C50.3011 77.3281 51.4758 78.5028 51.4758 79.9517V81.5065C51.4758 82.9555 50.3011 84.1301 48.8521 84.1301C47.4032 84.1301 46.2285 82.9555 46.2285 81.5065V79.9517Z" fill="#3D3D3D"/><path d="M36.3174 79.9517C36.3174 78.5028 37.492 77.3281 38.941 77.3281C40.39 77.3281 41.5646 78.5028 41.5646 79.9517V81.5065C41.5646 82.9555 40.39 84.1301 38.941 84.1301C37.492 84.1301 36.3174 82.9555 36.3174 81.5065V79.9517Z" fill="#3D3D3D"/><path fill-rule="evenodd" clip-rule="evenodd" d="M56.0932 81.6037H44.874V79.9228C44.9412 76.7611 47.5252 74.2188 50.703 74.2188H55.5615C55.8835 74.2188 56.1446 74.4798 56.1446 74.8018V80.8264C56.1446 81.0899 56.1271 81.3494 56.0932 81.6037Z" fill="#552B22"/><path fill-rule="evenodd" clip-rule="evenodd" d="M42.7299 81.6037H31.5094C31.4755 81.3494 31.458 81.0899 31.458 80.8264V74.8018C31.458 74.4798 31.719 74.2188 32.041 74.2188H36.8996C40.1196 74.2188 42.7299 76.8291 42.7299 80.049V81.6037Z" fill="#552B22"/><path d="M46.0039 88.3383C46.0039 89.4719 45.0171 90.5761 43.7998 90.5761C42.5825 90.5761 41.5957 89.4719 41.5957 88.3383C41.5957 87.2047 43.708 84.2773 43.7998 84.2773C43.8916 84.2773 46.0039 87.2047 46.0039 88.3383Z" fill="#552B22"/><path d="M31.4443 61.4805C26.5752 61.4805 12.832 65.4277 12.832 70.2968L22.6279 94.0518C22.6279 94.0544 22.628 94.0569 22.628 94.0595V77.3004C27.8091 80.3333 34.433 79.0837 38.1531 74.3716L39.376 72.8226C40.5351 71.3544 42.7315 71.2685 44.0017 72.6417C46.8241 75.6929 51.8063 75.0831 53.8094 71.4411L54.5872 70.0269C55.7321 74.6068 60.0181 77.6895 64.7243 77.3179L64.9464 77.3004L74.7423 70.2968C74.7423 65.4277 60.9992 61.4805 56.13 61.4805H31.4443Z" fill="#FF97CF"/><path d="M61.4209 81.7089C61.4209 79.2744 63.3945 77.3008 65.8291 77.3008C68.2636 77.3008 70.2372 79.2744 70.2372 81.7089C70.2372 84.1435 68.2636 86.1171 65.8291 86.1171C63.3945 86.1171 61.4209 84.1435 61.4209 81.7089Z" fill="#7D4A3F"/><path d="M17.3389 81.7089C17.3389 79.2744 19.3125 77.3008 21.747 77.3008C24.1816 77.3008 26.1552 79.2744 26.1552 81.7089C26.1552 84.1435 24.1816 86.1171 21.747 86.1171C19.3125 86.1171 17.3389 84.1435 17.3389 81.7089Z" fill="#7D4A3F"/><path d="M21.3187 86.1174H21.5261C22.099 86.1174 22.5634 85.653 22.5634 85.0802C22.5634 84.5073 22.099 84.043 21.5261 84.043H21.2357C21.228 84.043 21.2204 84.0432 21.2128 84.0437C17.3663 84.1004 14.2656 87.2361 14.2656 91.096H16.3401C16.3401 88.3464 18.5691 86.1174 21.3187 86.1174Z" fill="#F9DCC7"/><path d="M66.2818 86.1174H66.0743C65.5015 86.1174 65.0371 85.653 65.0371 85.0802C65.0371 84.5073 65.5015 84.043 66.0743 84.043H66.3647C66.3724 84.043 66.3801 84.0432 66.3877 84.0437C70.2341 84.1004 73.3348 87.2361 73.3348 91.096H71.2604C71.2604 88.3464 69.0314 86.1174 66.2818 86.1174Z" fill="#F9DCC7"/><path fill-rule="evenodd" clip-rule="evenodd" d="M138.326 138.81L148.497 118.207C139.792 117.492 132.949 110.199 132.949 101.309V93.1632C128.451 92.0028 125.127 87.9177 125.127 83.0564C125.127 78.1952 128.45 74.1103 132.949 72.9497V68.7163C132.949 64.6529 134.72 61.0061 137.522 58.5012C137.394 57.1084 137.43 55.6801 137.646 54.2407C139.096 44.5624 148.118 37.8924 157.797 39.343C158.41 39.435 159.013 39.5577 159.602 39.7094C164.661 33.7201 172.619 30.4072 180.953 31.6562C193.727 33.5708 202.531 45.4786 200.616 58.253C200.442 59.4149 200.185 60.5457 199.851 61.6398C202.052 64.4993 203.364 68.0862 203.364 71.9756V72.9497C207.863 74.1102 211.187 78.1952 211.187 83.0564C211.187 87.9176 207.863 92.0026 203.364 93.1631V101.309C203.364 110.283 196.393 117.628 187.571 118.225L197.721 138.785C188.835 143.437 178.725 146.069 167.999 146.069C157.294 146.069 147.2 143.447 138.326 138.81ZM149.905 114.346H154.773L141.854 140.516C143.047 141.048 144.258 141.546 145.488 142.007C147.893 142.908 150.367 143.669 152.9 144.28L153.009 144.306L153.022 144.28V144.309L153.136 144.337C157.907 145.468 162.883 146.067 167.999 146.067C173.157 146.067 178.173 145.458 182.979 144.309L183.038 144.295V144.28L183.044 144.293L183.099 144.28C185.649 143.665 188.14 142.897 190.562 141.988C191.791 141.526 193.002 141.027 194.194 140.494L181.286 114.346H186.409C193.609 114.346 199.446 108.509 199.446 101.309V89.4446C199.867 89.5301 200.303 89.575 200.75 89.575C201.196 89.575 201.632 89.5301 202.053 89.4446C205.029 88.8407 207.268 86.2101 207.268 83.0564C207.268 79.9027 205.029 77.2722 202.053 76.6682C201.632 76.5827 201.196 76.5378 200.75 76.5378C200.303 76.5378 199.867 76.5827 199.446 76.6682V71.9756C199.446 68.2446 197.879 64.8797 195.367 62.5032C196.017 60.993 196.486 59.375 196.741 57.6723C198.335 47.038 191.006 37.1252 180.372 35.5313C172.505 34.3523 165.033 38.0558 161.032 44.3682C159.851 43.8151 158.571 43.4212 157.216 43.2181C149.678 42.0882 142.651 47.2833 141.521 54.8215C141.242 56.6833 141.349 58.514 141.781 60.2323C138.845 61.9193 136.867 65.0869 136.867 68.7163V76.5386L136.868 76.6683C136.516 76.5968 136.153 76.5537 135.783 76.5415C135.743 76.5401 135.703 76.5392 135.663 76.5386C135.63 76.5381 135.597 76.5378 135.564 76.5378C135.531 76.5378 135.498 76.5381 135.465 76.5386C135.413 76.5394 135.361 76.5407 135.309 76.5427C134.94 76.5569 134.578 76.6019 134.226 76.6753C131.268 77.2924 129.045 79.9149 129.045 83.0564C129.045 86.21 131.285 88.8405 134.26 89.4445C134.681 89.5301 135.117 89.575 135.564 89.575C136.01 89.575 136.446 89.5301 136.868 89.4445V101.309C136.868 108.509 142.705 114.346 149.905 114.346Z" fill="white"/><path fill-rule="evenodd" clip-rule="evenodd" d="M141.855 140.514L154.774 114.345H149.906C142.705 114.345 136.868 108.508 136.868 101.308V89.4435C136.447 89.529 136.011 89.5739 135.564 89.5739C131.964 89.5739 129.046 86.6554 129.046 83.0553C129.046 79.4552 131.964 76.5368 135.564 76.5368C136.011 76.5368 136.447 76.5817 136.868 76.6672L136.868 76.5375V68.7152C136.868 65.0858 138.845 61.9182 141.782 60.2312C141.349 58.5129 141.242 56.6823 141.521 54.8204C142.651 47.2822 149.678 42.0872 157.216 43.217C158.572 43.4201 159.852 43.814 161.032 44.3672C165.034 38.0547 172.506 34.3512 180.372 35.5302C191.007 37.1241 198.335 47.0369 196.742 57.6712C196.486 59.3739 196.018 60.9919 195.367 62.5021C197.879 64.8786 199.447 68.2435 199.447 71.9745V76.6671C199.868 76.5816 200.304 76.5368 200.75 76.5368C204.35 76.5368 207.269 79.4552 207.269 83.0553C207.269 86.6554 204.35 89.5739 200.75 89.5739C200.304 89.5739 199.868 89.529 199.447 89.4435V101.308C199.447 108.508 193.61 114.345 186.409 114.345H181.287L194.194 140.492C190.637 142.084 186.909 143.363 183.044 144.291L183.038 144.279V144.293C178.214 145.451 173.179 146.065 168 146.065C162.843 146.065 157.827 145.456 153.022 144.307V144.279L153.01 144.304C149.144 143.379 145.414 142.104 141.855 140.514Z" fill="#1CB0F6"/></svg>